#!OML:ASF F:\VICON\USERDATA\INSTALL\rory3\rory3.ASF
:FULLY-SPECIFIED
:DEGREES
3259
root -5.90863 17.6534 12.737 -543.414 30.7536 173.989
lowerback 12.199 1.27095 -4.23979
upperback 1.20816 1.21152 -0.28502
thorax -5.65303 0.73885 1.88325
lowerneck -18.8988 -4.64833 -9.95989
upperneck 29.4111 -3.75138 4.39311
head 13.3822 -1.8037 2.87557
rclavicle 1.27222e-014 -9.93923e-015
rhumerus -30.4843 -5.56114 -81.6848
rradius 35.8008
rwrist 3.54838
rhand -16.519 12.5035
rfingers 7.12502
rthumb 9.69942 -17.2532
lclavicle 1.27222e-014 -9.93923e-015
lhumerus -30.7107 -1.17167 84.8075
lradius 33.3974
lwrist -6.15141
lhand -18.1664 24.3132
lfingers 7.12502
lthumb 8.10976 54.1376
rfemur -25.5305 -4.59972 11.6526
rtibia 60.7664
rfoot -11.0238 -4.50397
rtoes -5.29668
lfemur -1.41075 1.23047 -31.8317
ltibia 20.3467
lfoot -13.6003 -14.4281
ltoes 13.8584
3260
root -5.86153 17.6416 12.6513 -543.339 30.3431 173.9
lowerback 12.1981 1.15373 -4.41759
upperback 1.19861 1.03183 -0.300314
thorax -5.65361 0.655205 1.99808
lowerneck -18.814 -4.62476 -10.0337
upperneck 29.323 -3.71764 4.43531
head 13.3271 -1.79249 2.90892
rclavicle 3.92103e-014 3.97569e-016
rhumerus -30.668 -5.48634 -81.7937
rradius 35.62
rwrist 3.59336
rhand -16.5107 12.6652
rfingers 7.12502
rthumb 9.70743 -17.0911
lclavicle 3.92103e-014 3.97569e-016
lhumerus -30.1182 -1.35277 84.8138
lradius 33.5276
lwrist -6.01573
lhand -18.2053 24.1149
lfingers 7.12502
lthumb 8.07224 53.9408
rfemur -26.3064 -4.21815 11.7029
rtibia 59.5515
rfoot -11.4051 -4.25368
rtoes -3.39794
lfemur -1.16393 1.22785 -31.9299
ltibia 20.3769
lfoot -13.7348 -14.718
ltoes 14.0774
3261
root -5.81223 17.6308 12.5668 -543.301 29.9622 173.748
lowerback 12.2388 1.10482 -4.6744
upperback 1.1788 0.928508 -0.343667
thorax -5.69343 0.611856 2.11412
lowerneck -18.6996 -4.65482 -10.1205
upperneck 29.2422 -3.78133 4.54712
head 13.2795 -1.81529 2.95588
rclavicle -1.75427e-014 -1.59028e-015
rhumerus -30.8313 -5.74589 -81.8159
rradius 35.3428
rwrist 3.76727
rhand -16.6388 12.4919
rfingers 7.12502
rthumb 9.58385 -17.2702
lclavicle -1.75427e-014 -1.59028e-015
lhumerus -29.5323 -1.61097 84.8396
lradius 33.7197
lwrist -5.81184
lhand -18.2923 23.8164
lfingers 7.12502
lthumb 7.98819 53.6455
rfemur -27.0289 -3.8641 11.7222
rtibia 58.1828
rfoot -11.5298 -4.23121
rtoes -4.72058
lfemur -0.834645 1.2909 -32.0716
ltibia 20.2626
lfoot -13.7127 -15.0404
ltoes 13.7469
3262
root -5.76409 17.6255 12.4827 -543.254 29.5507 173.675
lowerback 12.2589 1.02588 -4.80469
upperback 1.24249 0.809052 -0.4122
thorax -5.62906 0.555792 2.136
lowerneck -18.7482 -4.6935 -10.058
upperneck 29.1856 -3.88066 4.60336
head 13.2737 -1.84618 2.94807
rclavicle -2.72832e-014 -7.15625e-015
rhumerus -30.9006 -6.04506 -81.9283
rradius 35.0734
rwrist 3.92486
rhand -16.9077 12.201
rfingers 7.12502
rthumb 9.32444 -17.5728
lclavicle -2.72832e-014 -7.15625e-015
lhumerus -28.9326 -1.96516 84.8194
lradius 34.0783
lwrist -5.56444
lhand -18.2771 23.8093
lfingers 7.12502
lthumb 8.00291 53.6378
rfemur -27.7338 -3.62689 11.8751
rtibia 56.6658
rfoot -11.4746 -4.43004
rtoes -8.42471
lfemur -0.386618 1.27385 -32.1515
ltibia 20.0136
lfoot -13.6957 -15.2575
ltoes 13.5414
3263
root -5.71511 17.6219 12.397 -543.12 29.1991 173.739
lowerback 12.2779 0.942998 -4.82405
upperback 1.26156 0.697193 -0.428851
thorax -5.61114 0.501412 2.14843
lowerneck -18.8112 -4.70771 -9.94413
upperneck 29.1924 -3.90973 4.523
head 13.2871 -1.85757 2.89117
rclavicle -4.34344e-014 -5.1684e-015
rhumerus -31.1131 -6.13017 -82.0474
rradius 34.9145
rwrist 3.9206
rhand -17.2454 11.6604
rfingers 7.12502
rthumb 8.9985 -18.1277
lclavicle -4.34344e-014 -5.1684e-015
lhumerus -28.4795 -2.18878 84.8068
lradius 34.4554
lwrist -5.69277
lhand -18.0885 23.9087
lfingers 7.12502
lthumb 8.18489 53.7302
rfemur -28.3509 -3.21804 12.1029
rtibia 55.0088
rfoot -11.5751 -4.26215
rtoes -9.57054
lfemur 0.0925385 1.40706 -32.1018
ltibia 19.6498
lfoot -13.5735 -15.5564
ltoes 14.9323
3264
root -5.66403 17.6208 12.3086 -542.967 28.8746 173.78
lowerback 12.3148 0.865812 -4.90817
upperback 1.19912 0.577886 -0.405258
thorax -5.69014 0.446689 2.24051
lowerneck -18.6883 -4.71348 -9.96847
upperneck 29.1445 -3.89628 4.45235
head 13.2397 -1.86358 2.86935
rclavicle 4.05024e-014 -1.03368e-014
rhumerus -31.4512 -6.19085 -82.0701
rradius 34.7147
rwrist 4.00829
rhand -17.6416 10.892
rfingers 7.12502
rthumb 8.61619 -18.9122
lclavicle 4.05024e-014 -1.03368e-014
lhumerus -28.2088 -2.38928 84.8605
lradius 34.9034
lwrist -5.79898
lhand -17.7092 23.84
lfingers 7.12502
lthumb 8.55095 53.6469
rfemur -28.8468 -2.69699 12.2246
rtibia 53.2248
rfoot -11.8019 -3.88743
rtoes -8.65917
lfemur 0.56508 1.68377 -32.0494
ltibia 19.201
lfoot -12.6601 -16.2178
ltoes 18.9436
3265
root -5.61231 17.6245 12.2186 -542.801 28.5215 173.718
lowerback 12.2175 0.754234 -5.09142
upperback 1.19294 0.410613 -0.403274
thorax -5.63096 0.367643 2.37514
lowerneck -18.6764 -4.68815 -9.97878
upperneck 29.0859 -3.85762 4.44019
head 13.2092 -1.85075 2.87123
rclavicle -1.04362e-015 -1.43125e-014
rhumerus -31.5922 -6.29841 -82.1161
rradius 34.3858
rwrist 4.21804
rhand -17.8008 10.5899
rfingers 7.12502
rthumb 8.46259 -19.2205
lclavicle -1.04362e-015 -1.43125e-014
lhumerus -27.7768 -2.62572 84.895
lradius 35.2936
lwrist -5.60893
lhand -17.3787 23.9884
lfingers 7.12502
lthumb 8.86988 53.782
rfemur -29.3744 -2.30765 12.2596
rtibia 51.3145
rfoot -11.8274 -3.67638
rtoes -8.65264
lfemur 0.9906 1.85411 -32.111
ltibia 18.7044
lfoot -11.8378 -16.6508
ltoes 22.0849
3266
root -5.5628 17.6252 12.1253 -542.691 28.1553 173.695
lowerback 12.1398 0.614426 -5.1516
upperback 1.25127 0.225432 -0.444946
thorax -5.51104 0.275552 2.39682
lowerneck -18.7966 -4.63833 -9.89212
upperneck 29.1199 -3.80723 4.44632
head 13.2411 -1.81879 2.86748
rclavicle 7.7526e-015 -5.56597e-015
rhumerus -31.6146 -6.42552 -82.2248
rradius 33.9707
rwrist 4.34635
rhand -17.6559 10.7595
rfingers 7.12502
rthumb 8.60242 -19.0453
lclavicle 7.7526e-015 -5.56597e-015
lhumerus -27.2712 -2.94691 84.881
lradius 35.6675
lwrist -5.37862
lhand -17.3014 24.5832
lfingers 7.12502
lthumb 8.94448 54.3736
rfemur -29.7723 -2.00645 12.332
rtibia 49.3061
rfoot -11.5696 -3.46945
rtoes -8.58389
lfemur 1.58852 1.97032 -32.1645
ltibia 18.0904
lfoot -12.2073 -16.6944
ltoes 21.1101
3267
root -5.51342 17.6243 12.0285 -542.584 27.7768 173.75
lowerback 12.1311 0.493713 -5.05097
upperback 1.27293 0.0786736 -0.516349
thorax -5.47121 0.200354 2.28937
lowerneck -18.8149 -4.64978 -9.86473
upperneck 29.1637 -3.85533 4.52886
head 13.268 -1.82484 2.88858
rclavicle -7.05686e-014 1.23246e-014
rhumerus -31.8357 -6.56041 -82.3589
rradius 33.7203
rwrist 4.41884
rhand -17.5075 10.6559
rfingers 7.12502
rthumb 8.74565 -19.1429
lclavicle -7.05686e-014 1.23246e-014
lhumerus -26.8897 -3.39525 84.8862
lradius 36.0457
lwrist -5.06963
lhand -17.6441 24.9029
lfingers 7.12502
lthumb 8.61385 54.7072
rfemur -30.0729 -1.74224 12.474
rtibia 47.242
rfoot -11.0862 -3.28984
rtoes -8.35118
lfemur 2.35208 2.09362 -32.1652
ltibia 17.2916
lfoot -12.7094 -16.5211
ltoes 18.8362
3268
root -5.46025 17.6223 11.9336 -542.57 27.3672 173.642
lowerback 12.1495 0.391817 -5.19011
upperback 1.28481 -0.0757632 -0.578622
thorax -5.45663 0.127985 2.32781
lowerneck -18.7569 -4.6702 -9.85162
upperneck 29.1355 -3.89926 4.5422
head 13.2477 -1.84087 2.88378
rclavicle -1.51573e-014 1.35174e-014
rhumerus -32.1238 -6.7548 -82.4366
rradius 33.5613
rwrist 4.54421
rhand -17.3865 10.314
rfingers 7.12502
rthumb 8.86242 -19.4799
lclavicle -1.51573e-014 1.35174e-014
lhumerus -26.5287 -3.64166 84.8994
lradius 36.3595
lwrist -5.03023
lhand -17.687 24.8104
lfingers 7.12502
lthumb 8.57237 54.6163
rfemur -30.3276 -1.58528 12.4814
rtibia 45.1612
rfoot -10.4447 -3.13903
rtoes -8.67077
lfemur 3.20972 2.3395 -32.2727
ltibia 16.3589
lfoot -12.5713 -16.5165
ltoes 17.9904
3269
root -5.40684 17.615 11.8406 -542.545 26.9313 173.423
lowerback 12.1094 0.276357 -5.49817
upperback 1.31492 -0.263625 -0.606675
thorax -5.386 0.0416931 2.5027
lowerneck -18.8046 -4.68938 -9.89321
upperneck 29.1259 -3.90362 4.51887
head 13.2553 -1.85173 2.87981
rclavicle 3.54334e-014 8.74653e-015
rhumerus -32.3237 -6.83012 -82.4312
rradius 33.4064
rwrist 4.65818
rhand -17.2792 10.2415
rfingers 7.12502
rthumb 8.96592 -19.548
lclavicle 3.54334e-014 8.74653e-015
lhumerus -26.1367 -3.75498 84.9485
lradius 36.7064
lwrist -5.06076
lhand -17.5012 24.9149
lfingers 7.12502
lthumb 8.75166 54.7135
rfemur -30.6329 -1.44102 12.366
rtibia 43.0669
rfoot -9.65168 -3.01978
rtoes -7.86742
lfemur 4.03462 2.54558 -32.4778
ltibia 15.3787
lfoot -12.3828 -16.5514
ltoes 17.2321
3270
root -5.35634 17.6128 11.7422 -542.409 26.5878 173.384
lowerback 12.0304 0.188625 -5.60594
upperback 1.34553 -0.384861 -0.575866
thorax -5.29841 -0.0176952 2.61529
lowerneck -18.9339 -4.72608 -10.0065
upperneck 29.1671 -3.91296 4.53723
head 13.3052 -1.86685 2.90441
rclavicle -9.5516e-014 1.78906e-014
rhumerus -32.4939 -6.8146 -82.3933
rradius 33.2078
rwrist 4.72455
rhand -17.2808 10.0465
rfingers 7.12502
rthumb 8.96441 -19.7431
lclavicle -9.5516e-014 1.78906e-014
lhumerus -25.7064 -3.96243 85.0899
lradius 36.9878
lwrist -4.93164
lhand -17.574 24.9672
lfingers 7.12502
lthumb 8.68141 54.7687
rfemur -30.9253 -1.23074 12.4088
rtibia 40.9804
rfoot -8.68902 -2.91207
rtoes -6.87507
lfemur 4.90055 2.664 -32.5564
ltibia 14.3034
lfoot -12.401 -16.359
ltoes 15.3765
3271
root -5.30672 17.6144 11.6425 -542.239 26.2982 173.426
lowerback 11.9772 0.117646 -5.5745
upperback 1.33339 -0.472817 -0.576134
thorax -5.27434 -0.0624834 2.61126
lowerneck -18.952 -4.74925 -10.0872
upperneck 29.1836 -3.93682 4.60193
head 13.3222 -1.87736 2.94006
rclavicle 3.43401e-014 1.19271e-015
rhumerus -32.7305 -6.92618 -82.4073
rradius 32.9456
rwrist 4.86044
rhand -17.4069 9.84502
rfingers 7.12502
rthumb 8.8427 -19.9497
lclavicle 3.43401e-014 1.19271e-015
lhumerus -25.3828 -4.18547 85.187
lradius 37.2886
lwrist -4.84862
lhand -17.7516 24.8001
lfingers 7.12502
lthumb 8.51005 54.6086
rfemur -31.1361 -0.968222 12.5087
rtibia 38.8768
rfoot -7.54199 -2.92565
rtoes -6.03768
lfemur 5.74468 2.835 -32.547
ltibia 13.2178
lfoot -12.1971 -16.1722
ltoes 13.7877
3272
root -5.25206 17.612 11.5451 -542.066 25.9486 173.341
lowerback 11.853 0.0241927 -5.72896
upperback 1.31162 -0.61118 -0.594473
thorax -5.21479 -0.129048 2.70024
lowerneck -18.9549 -4.74873 -10.0869
upperneck 29.1949 -3.94071 4.62152
head 13.3283 -1.87605 2.94752
rclavicle -2.43511e-015 7.95139e-015
rhumerus -32.9864 -6.9965 -82.4287
rradius 32.6546
rwrist 4.9448
rhand -17.4802 10.1249
rfingers 7.12502
rthumb 8.77199 -19.6728
lclavicle -2.43511e-015 7.95139e-015
lhumerus -25.1134 -4.2892 85.2405
lradius 37.6421
lwrist -4.76683
lhand -17.7734 24.5981
lfingers 7.12502
lthumb 8.48898 54.4075
rfemur -31.3677 -0.821454 12.5142
rtibia 36.7622
rfoot -6.3107 -3.11704
rtoes -5.30551
lfemur 6.4306 3.16825 -32.6009
ltibia 12.2616
lfoot -11.9553 -16.2291
ltoes 12.5787
